<?xml version="1.0" encoding="UTF-8"?><svg xmlns="http://www.w3.org/2000/svg" xmlns:xlink="http://www.w3.org/1999/xlink" fill-opacity="1" color-rendering="auto" color-interpolation="auto" text-rendering="auto" stroke="black" stroke-linecap="square" width="776" stroke-miterlimit="10" shape-rendering="auto" stroke-opacity="1" fill="black" stroke-dasharray="none" font-weight="normal" stroke-width="1" height="498" font-family="'Dialog'" font-style="normal" stroke-linejoin="miter" font-size="12px" stroke-dashoffset="0" image-rendering="auto">
  <!--Generated by ySVG 2.5-->
  <defs id="genericDefs"/>
  <g>
    <defs id="defs1">
      <clipPath clipPathUnits="userSpaceOnUse" id="clipPath1">
        <path d="M0 0 L776 0 L776 498 L0 498 L0 0 Z"/>
      </clipPath>
      <clipPath clipPathUnits="userSpaceOnUse" id="clipPath2">
        <path d="M-15 -15 L761 -15 L761 483 L-15 483 L-15 -15 Z"/>
      </clipPath>
    </defs>
    <g fill="white" text-rendering="geometricPrecision" shape-rendering="geometricPrecision" transform="translate(15,15)" stroke="white">
      <rect x="-15" width="776" height="498" y="-15" clip-path="url(#clipPath2)" stroke="none"/>
    </g>
    <g fill="rgb(255,204,0)" text-rendering="geometricPrecision" shape-rendering="geometricPrecision" transform="matrix(1,0,0,1,15,15)" stroke="rgb(255,204,0)">
      <ellipse rx="46.5" ry="22.5" clip-path="url(#clipPath2)" cx="683.0206" cy="148.5" stroke="none"/>
    </g>
    <g text-rendering="geometricPrecision" stroke-miterlimit="1.45" shape-rendering="geometricPrecision" transform="matrix(1,0,0,1,15,15)" stroke-linecap="butt">
      <ellipse rx="46.5" fill="none" ry="22.5" clip-path="url(#clipPath2)" cx="683.0206" cy="148.5"/>
      <text x="638.0001" xml:space="preserve" y="153.2139" clip-path="url(#clipPath2)" font-family="sans-serif" stroke="none">personalityName</text>
    </g>
    <g fill="rgb(255,204,0)" text-rendering="geometricPrecision" shape-rendering="geometricPrecision" transform="matrix(1,0,0,1,15,15)" stroke="rgb(255,204,0)">
      <ellipse rx="46.5" ry="22.5" clip-path="url(#clipPath2)" cx="444.5" cy="148.5" stroke="none"/>
    </g>
    <g text-rendering="geometricPrecision" stroke-miterlimit="1.45" shape-rendering="geometricPrecision" transform="matrix(1,0,0,1,15,15)" stroke-linecap="butt">
      <ellipse rx="46.5" fill="none" ry="22.5" clip-path="url(#clipPath2)" cx="444.5" cy="148.5"/>
      <text x="402.1455" xml:space="preserve" y="153.2139" clip-path="url(#clipPath2)" font-family="sans-serif" stroke="none">personalityType</text>
    </g>
    <g fill="yellow" text-rendering="geometricPrecision" shape-rendering="geometricPrecision" transform="matrix(1,0,0,1,15,15)" stroke="yellow">
      <ellipse rx="46.5" ry="22.5" clip-path="url(#clipPath2)" cx="321.5" cy="148.5" stroke="none"/>
    </g>
    <g text-rendering="geometricPrecision" stroke-miterlimit="1.45" shape-rendering="geometricPrecision" transform="matrix(1,0,0,1,15,15)" stroke-linecap="butt">
      <ellipse rx="46.5" fill="none" ry="22.5" clip-path="url(#clipPath2)" cx="321.5" cy="148.5"/>
      <text x="287.4805" xml:space="preserve" y="153.2139" clip-path="url(#clipPath2)" font-family="sans-serif" stroke="none">personalityId</text>
    </g>
    <g fill="rgb(255,204,0)" text-rendering="geometricPrecision" shape-rendering="geometricPrecision" transform="matrix(1,0,0,1,15,15)" stroke="rgb(255,204,0)">
      <rect x="513.5" width="100" height="52" y="191" clip-path="url(#clipPath2)" stroke="none"/>
    </g>
    <g text-rendering="geometricPrecision" stroke-miterlimit="1.45" shape-rendering="geometricPrecision" transform="matrix(1,0,0,1,15,15)" stroke-linecap="butt">
      <rect fill="none" x="513.5" width="100" height="52" y="191" clip-path="url(#clipPath2)"/>
      <text x="546.4932" xml:space="preserve" y="221.7139" clip-path="url(#clipPath2)" font-family="sans-serif" stroke="none">Profile</text>
    </g>
    <g fill="rgb(255,204,0)" text-rendering="geometricPrecision" shape-rendering="geometricPrecision" transform="matrix(1,0,0,1,15,15)" stroke="rgb(255,204,0)">
      <path d="M521.0001 148.5 L563.5 128.5 L606 148.5 L563.5 168.5 Z" fill-rule="evenodd" clip-path="url(#clipPath2)" stroke="none"/>
    </g>
    <g text-rendering="geometricPrecision" stroke-miterlimit="1.45" shape-rendering="geometricPrecision" transform="matrix(1,0,0,1,15,15)" stroke-linecap="butt">
      <path fill="none" d="M521.0001 148.5 L563.5 128.5 L606 148.5 L563.5 168.5 Z" fill-rule="evenodd" clip-path="url(#clipPath2)"/>
      <text x="552.8301" xml:space="preserve" y="153.2139" clip-path="url(#clipPath2)" font-family="sans-serif" stroke="none">Has</text>
    </g>
    <g fill="rgb(255,204,0)" text-rendering="geometricPrecision" shape-rendering="geometricPrecision" transform="matrix(1,0,0,1,15,15)" stroke="rgb(255,204,0)">
      <rect x="386.1667" width="100" height="52" y="0" clip-path="url(#clipPath2)" stroke="none"/>
    </g>
    <g text-rendering="geometricPrecision" stroke-miterlimit="1.45" shape-rendering="geometricPrecision" transform="matrix(1,0,0,1,15,15)" stroke-linecap="butt">
      <rect fill="none" x="386.1667" width="100" height="52" y="0" clip-path="url(#clipPath2)"/>
      <text x="406.486" xml:space="preserve" y="30.7139" clip-path="url(#clipPath2)" font-family="sans-serif" stroke="none">Personality</text>
    </g>
    <g fill="rgb(255,204,0)" text-rendering="geometricPrecision" shape-rendering="geometricPrecision" transform="matrix(1,0,0,1,15,15)" stroke="rgb(255,204,0)">
      <ellipse rx="46.5" ry="22.5" clip-path="url(#clipPath2)" cx="576" cy="300.5" stroke="none"/>
    </g>
    <g text-rendering="geometricPrecision" stroke-miterlimit="1.45" shape-rendering="geometricPrecision" transform="matrix(1,0,0,1,15,15)" stroke-linecap="butt">
      <ellipse rx="46.5" fill="none" ry="22.5" clip-path="url(#clipPath2)" cx="576" cy="300.5"/>
      <text x="543.6533" xml:space="preserve" y="305.2139" clip-path="url(#clipPath2)" font-family="sans-serif" stroke="none">profileName</text>
    </g>
    <g fill="rgb(255,204,0)" text-rendering="geometricPrecision" shape-rendering="geometricPrecision" transform="matrix(1,0,0,1,15,15)" stroke="rgb(255,204,0)">
      <ellipse rx="46.5" ry="22.5" clip-path="url(#clipPath2)" cx="699" cy="300.5" stroke="none"/>
    </g>
    <g text-rendering="geometricPrecision" stroke-miterlimit="1.45" shape-rendering="geometricPrecision" transform="matrix(1,0,0,1,15,15)" stroke-linecap="butt">
      <ellipse rx="46.5" fill="none" ry="22.5" clip-path="url(#clipPath2)" cx="699" cy="300.5"/>
      <text x="667.6553" xml:space="preserve" y="305.2139" clip-path="url(#clipPath2)" font-family="sans-serif" stroke="none">profileEmail</text>
    </g>
    <g fill="yellow" text-rendering="geometricPrecision" shape-rendering="geometricPrecision" transform="matrix(1,0,0,1,15,15)" stroke="yellow">
      <ellipse rx="46.5" ry="22.5" clip-path="url(#clipPath2)" cx="453" cy="300.5" stroke="none"/>
    </g>
    <g text-rendering="geometricPrecision" stroke-miterlimit="1.45" shape-rendering="geometricPrecision" transform="matrix(1,0,0,1,15,15)" stroke-linecap="butt">
      <ellipse rx="46.5" fill="none" ry="22.5" clip-path="url(#clipPath2)" cx="453" cy="300.5"/>
      <text x="431.6543" xml:space="preserve" y="305.2139" clip-path="url(#clipPath2)" font-family="sans-serif" stroke="none">profileId</text>
    </g>
    <g fill="rgb(255,204,0)" text-rendering="geometricPrecision" shape-rendering="geometricPrecision" transform="matrix(1,0,0,1,15,15)" stroke="rgb(255,204,0)">
      <rect x="177.5" width="100" height="52" y="345.5" clip-path="url(#clipPath2)" stroke="none"/>
    </g>
    <g text-rendering="geometricPrecision" stroke-miterlimit="1.45" shape-rendering="geometricPrecision" transform="matrix(1,0,0,1,15,15)" stroke-linecap="butt">
      <rect fill="none" x="177.5" width="100" height="52" y="345.5" clip-path="url(#clipPath2)"/>
      <text x="181.4775" xml:space="preserve" y="376.2139" clip-path="url(#clipPath2)" font-family="sans-serif" stroke="none">Profilepersonality</text>
    </g>
    <g fill="rgb(255,204,153)" text-rendering="geometricPrecision" shape-rendering="geometricPrecision" transform="matrix(1,0,0,1,15,15)" stroke="rgb(255,204,153)">
      <ellipse rx="100" ry="22.5" clip-path="url(#clipPath2)" cx="330" cy="445" stroke="none"/>
    </g>
    <g text-rendering="geometricPrecision" stroke-miterlimit="1.45" shape-rendering="geometricPrecision" transform="matrix(1,0,0,1,15,15)" stroke-linecap="butt">
      <ellipse rx="100" fill="none" ry="22.5" clip-path="url(#clipPath2)" cx="330" cy="445"/>
      <text x="261.9668" xml:space="preserve" y="449.7139" clip-path="url(#clipPath2)" font-family="sans-serif" stroke="none">profilePersonalityProfileId</text>
    </g>
    <g fill="rgb(255,204,153)" text-rendering="geometricPrecision" shape-rendering="geometricPrecision" transform="matrix(1,0,0,1,15,15)" stroke="rgb(255,204,153)">
      <ellipse rx="100" ry="22.5" clip-path="url(#clipPath2)" cx="100" cy="445" stroke="none"/>
    </g>
    <g text-rendering="geometricPrecision" stroke-miterlimit="1.45" shape-rendering="geometricPrecision" transform="matrix(1,0,0,1,15,15)" stroke-linecap="butt">
      <ellipse rx="100" fill="none" ry="22.5" clip-path="url(#clipPath2)" cx="100" cy="445"/>
      <text x="19.293" xml:space="preserve" y="449.7139" clip-path="url(#clipPath2)" font-family="sans-serif" stroke="none">profilePersonalityPersonalityId</text>
    </g>
    <g fill="rgb(255,204,0)" text-rendering="geometricPrecision" shape-rendering="geometricPrecision" transform="matrix(1,0,0,1,15,15)" stroke="rgb(255,204,0)">
      <path d="M160 148.5 L202.5 128.5 L245 148.5 L202.5 168.5 Z" fill-rule="evenodd" clip-path="url(#clipPath2)" stroke="none"/>
    </g>
    <g text-rendering="geometricPrecision" stroke-miterlimit="1.45" shape-rendering="geometricPrecision" transform="matrix(1,0,0,1,15,15)" stroke-linecap="butt">
      <path fill="none" d="M160 148.5 L202.5 128.5 L245 148.5 L202.5 168.5 Z" fill-rule="evenodd" clip-path="url(#clipPath2)"/>
      <text x="191.8301" xml:space="preserve" y="153.2139" clip-path="url(#clipPath2)" font-family="sans-serif" stroke="none">Has</text>
    </g>
    <g fill="rgb(255,204,0)" text-rendering="geometricPrecision" shape-rendering="geometricPrecision" transform="matrix(1,0,0,1,15,15)" stroke="rgb(255,204,0)">
      <path d="M217.5 300.5 L260 280.5 L302.5 300.5 L260 320.5 Z" fill-rule="evenodd" clip-path="url(#clipPath2)" stroke="none"/>
    </g>
    <g text-rendering="geometricPrecision" stroke-miterlimit="1.45" shape-rendering="geometricPrecision" transform="matrix(1,0,0,1,15,15)" stroke-linecap="butt">
      <path fill="none" d="M217.5 300.5 L260 280.5 L302.5 300.5 L260 320.5 Z" fill-rule="evenodd" clip-path="url(#clipPath2)"/>
      <text x="249.3301" xml:space="preserve" y="305.2139" clip-path="url(#clipPath2)" font-family="sans-serif" stroke="none">Has</text>
    </g>
    <g fill="rgb(255,204,0)" text-rendering="geometricPrecision" shape-rendering="geometricPrecision" transform="matrix(1,0,0,1,15,15)" stroke="rgb(255,204,0)">
      <ellipse rx="65" ry="22.5" clip-path="url(#clipPath2)" cx="65" cy="148.5" stroke="none"/>
    </g>
    <g text-rendering="geometricPrecision" stroke-miterlimit="1.45" shape-rendering="geometricPrecision" transform="matrix(1,0,0,1,15,15)" stroke-linecap="butt">
      <ellipse rx="65" fill="none" ry="22.5" clip-path="url(#clipPath2)" cx="65" cy="148.5"/>
      <text x="5.9727" xml:space="preserve" y="153.2139" clip-path="url(#clipPath2)" font-family="sans-serif" stroke="none">personalityDescription</text>
      <path fill="none" d="M563.5 168.5 L563.5 182.9561" clip-path="url(#clipPath2)"/>
      <path d="M563.5 190.9561 L568.5 178.9561 L563.5 181.9561 L558.5 178.9561 Z" clip-path="url(#clipPath2)" stroke="none"/>
      <path fill="none" d="M427.8333 52 L427.8333 82 L321.5 82 L321.5 118" clip-path="url(#clipPath2)"/>
      <path d="M321.5 126 L326.5 114 L321.5 117 L316.5 114 Z" clip-path="url(#clipPath2)" stroke="none"/>
      <path fill="none" d="M461.1667 52 L461.1667 72 L563.5 72 L563.5 120.5" clip-path="url(#clipPath2)"/>
      <path d="M563.5 128.5 L568.5 116.5 L563.5 119.5 L558.5 116.5 Z" clip-path="url(#clipPath2)" stroke="none"/>
      <path fill="none" d="M444.5 52 L444.5 118" clip-path="url(#clipPath2)"/>
      <path d="M444.5 126 L449.5 114 L444.5 117 L439.5 114 Z" clip-path="url(#clipPath2)" stroke="none"/>
      <path fill="none" d="M477.8333 52 L477.8333 62 L683.0206 62 L683.0206 118" clip-path="url(#clipPath2)"/>
      <path d="M683.0206 126 L688.0206 114 L683.0206 117 L678.0206 114 Z" clip-path="url(#clipPath2)" stroke="none"/>
      <path fill="none" d="M576 243 L576 270" clip-path="url(#clipPath2)"/>
      <path d="M576 278 L581 266 L576 269 L571 266 Z" clip-path="url(#clipPath2)" stroke="none"/>
      <path fill="none" d="M601 243 L601 253 L699 253 L699 270" clip-path="url(#clipPath2)"/>
      <path d="M699 278 L704 266 L699 269 L694 266 Z" clip-path="url(#clipPath2)" stroke="none"/>
      <path fill="none" d="M551 243 L551 263 L453 263 L453 270" clip-path="url(#clipPath2)"/>
      <path d="M453 278 L458 266 L453 269 L448 266 Z" clip-path="url(#clipPath2)" stroke="none"/>
      <path fill="none" d="M252.5 397.5 L252.5 407.5 L330 407.5 L330 414.5" clip-path="url(#clipPath2)"/>
      <path d="M330 422.5 L335 410.5 L330 413.5 L325 410.5 Z" clip-path="url(#clipPath2)" stroke="none"/>
      <path fill="none" d="M202.5 397.5 L202.5 407.5 L100 407.5 L100 414.5" clip-path="url(#clipPath2)"/>
      <path d="M100 422.5 L105 410.5 L100 413.5 L95 410.5 Z" clip-path="url(#clipPath2)" stroke="none"/>
      <path fill="none" d="M411.1667 52 L411.1667 72 L202.5 72 L202.5 120.5" clip-path="url(#clipPath2)"/>
      <path d="M202.5 128.5 L207.5 116.5 L202.5 119.5 L197.5 116.5 Z" clip-path="url(#clipPath2)" stroke="none"/>
      <path fill="none" d="M202.5 168.5 L202.5 337.4568" clip-path="url(#clipPath2)"/>
      <path d="M202.5 345.4568 L207.5 333.4568 L202.5 336.4568 L197.5 333.4568 Z" clip-path="url(#clipPath2)" stroke="none"/>
      <path fill="none" d="M526 243 L526 253 L260 253 L260 272.4731" clip-path="url(#clipPath2)"/>
      <path d="M260 280.4731 L265 268.4731 L260 271.4731 L255 268.4731 Z" clip-path="url(#clipPath2)" stroke="none"/>
      <path fill="none" d="M260 320.5 L260 330.5 L252.5 330.5 L252.5 337.4707" clip-path="url(#clipPath2)"/>
      <path d="M252.5 345.4707 L257.5 333.4707 L252.5 336.4707 L247.5 333.4707 Z" clip-path="url(#clipPath2)" stroke="none"/>
      <path fill="none" d="M394.5 52 L394.5 62 L65 62 L65 118" clip-path="url(#clipPath2)"/>
      <path d="M65 126 L70 114 L65 117 L60 114 Z" clip-path="url(#clipPath2)" stroke="none"/>
    </g>
  </g>
</svg>
